<svg xmlns="http://www.w3.org/2000/svg" xmlns:xlink="http://www.w3.org/1999/xlink" width="87" height="64" viewBox="0 0 87 64">
  <defs>
    <clipPath id="clip-path">
      <rect id="Rectangle_84" data-name="Rectangle 84" width="52.292" height="52.285" fill="#1e1e1e"/>
    </clipPath>
  </defs>
  <g id="Group_82" data-name="Group 82" transform="translate(-3646.595 -532.932)">
    <g id="Union_1" data-name="Union 1" transform="translate(3646.595 532.932)" fill="none">
      <path d="M0,32.078H0V0H87V32.078h0C86.943,49.715,67.489,64,43.5,64S.057,49.715,0,32.078Z" stroke="none"/>
      <path d="M 43.49990463256836 63 C 49.26309585571289 63 54.85238647460938 62.17147064208984 60.11252975463867 60.53743362426758 C 65.17995452880859 58.96327209472656 69.72881317138672 56.71221160888672 73.63276672363281 53.84678649902344 C 77.51364898681641 50.99830627441406 80.55977630615234 47.68745803833008 82.68656158447266 44.00621032714844 C 84.87176513671875 40.22386932373047 85.98651885986328 36.20950698852539 85.99985504150391 32.07463455200195 L 86 32.03281402587891 L 86 1 L 1 1 L 1.000141143798828 32.07463455200195 C 1.013482332229614 36.20951843261719 2.128235340118408 40.22388076782227 4.313411712646484 44.00622177124023 C 6.440176486968994 47.68745803833008 9.486293792724609 50.99830627441406 13.3671407699585 53.8468017578125 C 17.27105903625488 56.71222305297852 21.81990623474121 58.96328353881836 26.88730621337891 60.53743362426758 C 32.14743423461914 62.17147064208984 37.73671722412109 63 43.49990463256836 63 M 43.49990463256836 64 C 19.51072883605957 64 0.05708235129714012 49.71524810791016 0.0001411764678778127 32.07785797119141 L 0 32.07785797119141 L 0 0 L 87 0 L 86.99985504150391 32.07785797119141 C 86.94291687011719 49.71524810791016 67.48906707763672 64 43.49990463256836 64 Z" stroke="none" fill="#1e1e1e"/>
    </g>
    <g id="Group_79" data-name="Group 79" transform="translate(3675.454 535.872)">
      <g id="Group_77" data-name="Group 77" clip-path="url(#clip-path)">
        <path id="Path_875" data-name="Path 875" d="M26.162,52.285A26.143,26.143,0,1,1,52.3,26.143,26.172,26.172,0,0,1,26.162,52.285m0-51.629A25.486,25.486,0,1,0,51.648,26.143,25.515,25.515,0,0,0,26.162.657" transform="translate(-0.016 0)" fill="#1e1e1e"/>
        <path id="Path_876" data-name="Path 876" d="M126.771,52.331a.327.327,0,0,1-.19-.061c-.968-.688-2.685-2.586-3.3-7.56a85.939,85.939,0,0,1-.158-20.333C124.6,7.747,126.519,3.171,128.376.7a1.336,1.336,0,0,1,1.307-.573.328.328,0,1,1-.041.656.7.7,0,0,0-.741.312c-1.8,2.391-3.664,6.873-5.126,23.339a85.373,85.373,0,0,0,.156,20.194c.428,3.451,1.533,6.04,3.031,7.105a.328.328,0,0,1-.19.6" transform="translate(-102.466 -0.103)" fill="#1e1e1e"/>
        <path id="Path_877" data-name="Path 877" d="M72.256,52.253a.33.33,0,0,1-.074-.009c-2.132-.493-7.125-1.647-9.685-9-2.505-7.19-1.724-12.777-.347-19.883,1.417-7.311,3.628-12.721,6.76-16.537A20.965,20.965,0,0,1,76.983.891a5.074,5.074,0,0,1,1.9-.42.328.328,0,0,1,.036.656,4.391,4.391,0,0,0-1.657.361c-5.418,2.5-11.451,6.464-14.462,22-1.357,7.005-2.129,12.507.322,19.542,2.441,7.007,7.015,8.064,9.213,8.572a.328.328,0,0,1-.074.649" transform="translate(-50.868 -0.393)" fill="#1e1e1e"/>
        <path id="Path_880" data-name="Path 880" d="M153.9,52.331a.328.328,0,0,1-.191-.6c1.5-1.065,2.6-3.654,3.031-7.105a85.354,85.354,0,0,0,.156-20.194C155.431,7.97,153.565,3.488,151.767,1.1a.7.7,0,0,0-.741-.312.328.328,0,1,1-.041-.656A1.336,1.336,0,0,1,152.292.7c1.857,2.468,3.778,7.045,5.256,23.675a85.941,85.941,0,0,1-.158,20.333c-.618,4.974-2.334,6.871-3.3,7.56a.327.327,0,0,1-.19.061" transform="translate(-125.932 -0.103)" fill="#1e1e1e"/>
        <path id="Path_881" data-name="Path 881" d="M152.579,52.253a.328.328,0,0,1-.074-.649c2.2-.508,6.772-1.566,9.213-8.572C164.169,36,163.4,30.5,162.04,23.49c-3.012-15.539-9.044-19.5-14.462-22a4.389,4.389,0,0,0-1.657-.361.328.328,0,1,1,.035-.656,5.075,5.075,0,0,1,1.9.42,20.968,20.968,0,0,1,8.073,5.937c3.132,3.817,5.343,9.226,6.76,16.537,1.377,7.107,2.159,12.693-.347,19.883-2.56,7.349-7.553,8.5-9.685,9a.33.33,0,0,1-.074.009" transform="translate(-121.697 -0.393)" fill="#1e1e1e"/>
        <path id="Path_884" data-name="Path 884" d="M26.146,173.746C11.485,173.746,0,170.116,0,165.481a.328.328,0,1,1,.657,0c0,1.935,2.672,3.866,7.33,5.3a64.451,64.451,0,0,0,18.159,2.31,64.451,64.451,0,0,0,18.159-2.31c4.658-1.432,7.33-3.363,7.33-5.3a.328.328,0,1,1,.657,0c0,4.635-11.485,8.265-26.146,8.265" transform="translate(0 -138.031)" fill="#1e1e1e"/>
        <path id="Path_885" data-name="Path 885" d="M34.9,107.688c-13.7,0-24.426-3.274-24.426-7.454a2.53,2.53,0,0,1,.081-.631.328.328,0,0,1,.636.164,1.872,1.872,0,0,0-.06.467c0,3.684,10.885,6.8,23.769,6.8s23.769-3.113,23.769-6.8a1.855,1.855,0,0,0-.041-.384.328.328,0,0,1,.643-.136,2.51,2.51,0,0,1,.055.52c0,4.18-10.729,7.454-24.426,7.454" transform="translate(-8.755 -83.04)" fill="#1e1e1e"/>
        <path id="Path_886" data-name="Path 886" d="M63.44,52.919c-9.25,0-18.818-2.024-18.818-5.412a1.87,1.87,0,0,1,.191-.811.328.328,0,1,1,.593.284,1.218,1.218,0,0,0-.127.527c0,2.3,7.3,4.755,18.161,4.755S81.6,49.8,81.6,47.507a1.219,1.219,0,0,0-.127-.528.328.328,0,1,1,.593-.284,1.87,1.87,0,0,1,.191.811c0,3.388-9.568,5.412-18.818,5.412" transform="translate(-37.294 -38.871)" fill="#1e1e1e"/>
        <path id="Path_888" data-name="Path 888" d="M40.244,235.5c-10.836,0-20.424-2.839-23.315-6.9a.328.328,0,1,1,.535-.381c2.776,3.9,12.143,6.628,22.779,6.628s20-2.725,22.778-6.626a.328.328,0,0,1,.535.381c-2.893,4.064-12.48,6.9-23.313,6.9" transform="translate(-14.098 -190.622)" fill="#1e1e1e"/>
      </g>
    </g>
  </g>
</svg>
