<svg xmlns="http://www.w3.org/2000/svg" xmlns:xlink="http://www.w3.org/1999/xlink" width="213" height="156" viewBox="0 0 213 156">
  <defs>
    <clipPath id="clip-path">
      <rect id="Rectangle_84" data-name="Rectangle 84" width="128.816" height="128.801" fill="#1e1e1e"/>
    </clipPath>
  </defs>
  <g id="Group_80" data-name="Group 80" transform="translate(-3646.549 -532.509)">
    <g id="Union_1" data-name="Union 1" transform="translate(3646.549 532.509)" fill="none">
      <path d="M0,78.19H0V0H213V78.19h0C212.86,121.181,165.232,156,106.5,156S.14,121.181,0,78.19Z" stroke="none"/>
      <path d="M 106.4997787475586 154 C 113.6164169311523 154 120.7279434204102 153.4757843017578 127.6367797851562 152.4419097900391 C 134.3658294677734 151.4349670410156 140.9840240478516 149.9327850341797 147.3074493408203 147.9770812988281 C 153.5096435546875 146.0588836669922 159.4907531738281 143.6854400634766 165.0846099853516 140.9226989746094 C 170.6161651611328 138.1907196044922 175.8167724609375 135.0547180175781 180.5419769287109 131.6017761230469 C 185.2556457519531 128.1572570800781 189.5343017578125 124.369499206543 193.2591400146484 120.34375 C 197.0076446533203 116.2923889160156 200.2276153564453 111.9646377563477 202.82958984375 107.4807205200195 C 205.4706878662109 102.9293365478516 207.502197265625 98.16933441162109 208.8676452636719 93.33294677734375 C 210.2658081054688 88.38058471679688 210.9831085205078 83.28350067138672 210.9996337890625 78.18330383300781 L 211 78.07795715332031 L 211 2 L 2 2 L 2.000333309173584 78.18330383300781 C 2.016861200332642 83.28350067138672 2.734166622161865 88.38058471679688 4.132333278656006 93.33294677734375 C 5.497749805450439 98.16935729980469 7.529250144958496 102.9293365478516 10.17033290863037 107.4807205200195 C 12.77230548858643 111.9646682739258 15.99225044250488 116.2924194335938 19.74069404602051 120.34375 C 23.46552848815918 124.3695297241211 27.74416732788086 128.1572723388672 32.45780563354492 131.6017761230469 C 37.1829719543457 135.0547180175781 42.3835563659668 138.1907196044922 47.91508483886719 140.9226989746094 C 53.50891494750977 143.6854400634766 59.4900016784668 146.0588836669922 65.69216918945312 147.9770812988281 C 72.01558685302734 149.9327850341797 78.63375091552734 151.4349670410156 85.36280822753906 152.4419097900391 C 92.27161407470703 153.4757843017578 99.38314056396484 154 106.4997787475586 154 M 106.4997787475586 156 C 47.76766586303711 156 0.1397500038146973 121.1809463500977 0.0003333333297632635 78.18978118896484 L 0 78.18978118896484 L 0 0 L 213 0 L 212.9996337890625 78.18978118896484 C 212.8602447509766 121.1809463500977 165.2318878173828 156 106.4997787475586 156 Z" stroke="none" fill="#1e1e1e"/>
    </g>
    <g id="Group_79" data-name="Group 79" transform="translate(3719.883 539.383)">
      <g id="Group_77" data-name="Group 77" clip-path="url(#clip-path)">
        <path id="Path_875" data-name="Path 875" d="M64.42,128.8a64.4,64.4,0,1,1,64.4-64.4,64.474,64.474,0,0,1-64.4,64.4m0-127.183A62.783,62.783,0,1,0,127.2,64.4,62.854,62.854,0,0,0,64.42,1.618" transform="translate(-0.011)" fill="#1e1e1e"/>
        <path id="Path_876" data-name="Path 876" d="M132.876,128.732a.805.805,0,0,1-.468-.15c-2.385-1.7-6.613-6.37-8.134-18.622-2.11-16.988-2.208-29.627-.39-50.089C127.521,18.9,132.255,7.63,136.829,1.549A3.291,3.291,0,0,1,140.048.137a.809.809,0,1,1-.1,1.615,1.712,1.712,0,0,0-1.826.769c-4.429,5.889-9.025,16.93-12.629,57.493-1.806,20.334-1.709,32.886.384,49.746,1.055,8.5,3.776,14.88,7.466,17.5a.809.809,0,0,1-.469,1.469" transform="translate(-73.001 -0.073)" fill="#1e1e1e"/>
        <path id="Path_877" data-name="Path 877" d="M88.93,128.034a.812.812,0,0,1-.183-.021c-5.252-1.214-17.552-4.058-23.859-22.161-6.171-17.713-4.247-31.474-.854-48.981,3.49-18.011,8.938-31.337,16.653-40.739,6.645-8.1,13.749-11.8,19.886-14.625A12.5,12.5,0,0,1,105.244.471a.809.809,0,0,1,.088,1.616,10.817,10.817,0,0,0-4.082.89C87.9,9.129,73.041,18.9,65.623,57.178c-3.344,17.257-5.245,30.811.793,48.141,6.013,17.261,17.28,19.866,22.7,21.118a.809.809,0,0,1-.181,1.6" transform="translate(-36.241 -0.28)" fill="#1e1e1e"/>
        <path id="Path_880" data-name="Path 880" d="M158.609,128.733a.809.809,0,0,1-.47-1.469c3.69-2.623,6.411-9,7.466-17.5,2.094-16.86,2.191-29.413.384-49.746-3.6-40.563-8.2-51.6-12.629-57.493a1.712,1.712,0,0,0-1.825-.769.809.809,0,1,1-.1-1.615,3.291,3.291,0,0,1,3.219,1.412C159.229,7.63,163.963,18.9,167.6,59.872c1.818,20.462,1.719,33.1-.39,50.089-1.522,12.253-5.75,16.926-8.135,18.622a.8.8,0,0,1-.468.15" transform="translate(-89.72 -0.074)" fill="#1e1e1e"/>
        <path id="Path_881" data-name="Path 881" d="M162.777,128.034a.809.809,0,0,1-.182-1.6c5.415-1.252,16.682-3.857,22.7-21.118,6.038-17.33,4.137-30.884.793-48.141C178.666,18.9,163.8,9.129,150.457,2.977a10.813,10.813,0,0,0-4.082-.89.809.809,0,0,1,.087-1.616,12.5,12.5,0,0,1,4.671,1.036c6.137,2.829,13.241,6.525,19.886,14.625,7.715,9.4,13.162,22.728,16.653,40.739,3.393,17.507,5.317,31.269-.854,48.981-6.307,18.1-18.607,20.947-23.859,22.161a.812.812,0,0,1-.183.021" transform="translate(-86.703 -0.28)" fill="#1e1e1e"/>
        <path id="Path_884" data-name="Path 884" d="M64.408,186.322C28.292,186.322,0,177.379,0,165.962a.809.809,0,1,1,1.618,0c0,4.766,6.581,9.524,18.056,13.051,11.938,3.669,27.824,5.69,44.734,5.69s32.8-2.021,44.734-5.69c11.475-3.528,18.056-8.284,18.056-13.051a.809.809,0,1,1,1.618,0c0,11.417-28.292,20.36-64.408,20.36" transform="translate(0 -98.34)" fill="#1e1e1e"/>
        <path id="Path_885" data-name="Path 885" d="M70.646,119.88c-33.74,0-60.171-8.066-60.171-18.362a6.232,6.232,0,0,1,.2-1.555.809.809,0,0,1,1.567.4,4.611,4.611,0,0,0-.148,1.151c0,9.076,26.814,16.744,58.553,16.744s58.553-7.667,58.553-16.744a4.573,4.573,0,0,0-.1-.946.809.809,0,1,1,1.583-.335,6.183,6.183,0,0,1,.135,1.281c0,10.3-26.43,18.362-60.171,18.362" transform="translate(-6.237 -59.162)" fill="#1e1e1e"/>
        <path id="Path_886" data-name="Path 886" d="M90.978,62.3c-22.787,0-46.356-4.987-46.356-13.332a4.607,4.607,0,0,1,.47-2,.809.809,0,1,1,1.46.7,3,3,0,0,0-.312,1.3c0,5.657,17.977,11.714,44.738,11.714s44.738-6.057,44.738-11.714a3,3,0,0,0-.312-1.3.809.809,0,1,1,1.46-.7,4.607,4.607,0,0,1,.47,2c0,8.346-23.57,13.332-46.356,13.332" transform="translate(-26.57 -27.693)" fill="#1e1e1e"/>
        <path id="Path_887" data-name="Path 887" d="M120.935,20.739c-12.8,0-25.767-2.341-25.767-6.816a2.7,2.7,0,0,1,.777-1.823.809.809,0,1,1,1.2,1.084,1.157,1.157,0,0,0-.36.738c0,2.17,9.187,5.2,24.149,5.2s24.149-3.027,24.149-5.2a1.293,1.293,0,0,0-.474-.857.809.809,0,0,1,1.134-1.155,2.813,2.813,0,0,1,.958,2.012c0,4.474-12.962,6.816-25.767,6.816" transform="translate(-56.668 -6.955)" fill="#1e1e1e"/>
        <path id="Path_888" data-name="Path 888" d="M74.453,246.364c-26.694,0-50.312-6.994-57.434-17.008a.809.809,0,0,1,1.319-.938c6.837,9.613,29.913,16.328,56.115,16.328s49.27-6.712,56.112-16.323a.809.809,0,0,1,1.318.939c-7.127,10.011-30.743,17-57.431,17" transform="translate(-10.044 -135.808)" fill="#1e1e1e"/>
      </g>
    </g>
  </g>
</svg>
